<?xml version="1.0" encoding="utf-8" ?>
<svg xmlns="http://www.w3.org/2000/svg" xmlns:xlink="http://www.w3.org/1999/xlink" width="1024" height="1024">
	<defs>
		<linearGradient id="gradient_0" gradientUnits="userSpaceOnUse" x1="164.93748" y1="167.17142" x2="100.55984" y2="92.220512">
			<stop offset="0" stop-color="#A1D2F3"/>
			<stop offset="1" stop-color="#B2EFF9"/>
		</linearGradient>
	</defs>
	<path fill="url(#gradient_0)" transform="scale(2 2)" d="M179.613 49.497C220.989 45.2475 241.322 95.7567 208.836 117.032C205.09 119.486 200.893 121.273 196.87 123.226C168.632 136.928 145.832 159.727 129.974 186.6C120.252 203.076 116.577 216.179 95.4423 221.934C83.1639 223.582 71.4307 218.866 62.4726 210.528C31.0942 181.319 68.0318 126.5 89.7515 103.153C110.215 81.1564 147.635 50.6399 179.613 49.497Z"/>
	<path fill="#7394F7" transform="scale(2 2)" d="M421.388 286.258C443.43 284.217 462.878 301.779 463.438 323.757C464.112 350.222 436.984 390.125 419.134 408.719C399.01 429.68 360.684 459.134 329.63 459.751C296.913 463.221 274.464 422.35 297.593 395.105C305.941 385.271 316.787 383.418 327.416 377.413C349.576 364.894 368.062 344.426 380.608 322.499C390.662 304.928 396.33 287.131 421.388 286.258Z"/>
	<defs>
		<linearGradient id="gradient_1" gradientUnits="userSpaceOnUse" x1="320.41553" y1="323.86978" x2="191.82076" y2="184.47038">
			<stop offset="0" stop-color="#98C0F4"/>
			<stop offset="1" stop-color="#CCDDF1"/>
		</linearGradient>
	</defs>
	<path fill="url(#gradient_1)" transform="scale(2 2)" d="M318.695 95.6459C370.648 93.3157 414.003 137.114 414.729 188.351C415.218 222.862 393.973 258.365 361.418 271.314C352.591 274.825 345.204 275.512 336.124 277.101C308.662 281.908 287.118 302.698 281.058 329.8C279.892 335.017 279.13 340.331 277.694 345.487C267.493 382.116 232.521 412.355 193.911 412.771C159.834 413.405 127.38 396.697 110.699 366.72C88.0503 326.019 95.9399 275.361 135.077 247.305C152.296 234.96 160.658 234.674 180.492 230.205C205.818 224.499 226.098 205.011 231.714 179.571C232.96 173.928 233.611 168.181 235.128 162.591C245.372 124.863 279.623 97.6624 318.695 95.6459Z"/>
</svg>
